<?xml version="1.0" encoding="UTF-8"?>
<svg xmlns="http://www.w3.org/2000/svg" xmlns:xlink="http://www.w3.org/1999/xlink" width="15px" height="15px" viewBox="0 0 15 15" version="1.1">
<g id="surface1">
<path style=" stroke:none;fill-rule:nonzero;fill:rgb(0%,0%,0%);fill-opacity:1;" d="M 3.359375 13.125 L 0.246094 13.125 L 0.246094 4.363281 L 3.359375 4.363281 Z M 1.800781 3.167969 C 0.804688 3.167969 0 2.445312 0 1.578125 C 0 0.707031 0.804688 0 1.800781 0 C 2.796875 0 3.601562 0.707031 3.601562 1.574219 C 3.601562 2.445312 2.796875 3.167969 1.800781 3.167969 Z M 14.996094 13.125 L 11.894531 13.125 L 11.894531 8.859375 C 11.894531 7.84375 11.871094 6.539062 10.277344 6.539062 C 8.660156 6.539062 8.410156 7.644531 8.410156 8.785156 L 8.410156 13.125 L 5.304688 13.125 L 5.304688 4.363281 L 8.289062 4.363281 L 8.289062 5.558594 L 8.332031 5.558594 C 8.746094 4.867188 9.761719 4.140625 11.273438 4.140625 C 14.421875 4.140625 15 5.957031 15 8.3125 L 15 13.125 Z M 14.996094 13.125 "/>
</g>
</svg>
