<?xml version="1.0" encoding="UTF-8"?>
<svg xmlns="http://www.w3.org/2000/svg" xmlns:xlink="http://www.w3.org/1999/xlink" width="14px" height="16px" viewBox="0 0 14 16" version="1.1">
<g id="surface1">
<path style=" stroke:none;fill-rule:nonzero;fill:rgb(0%,0%,0%);fill-opacity:1;" d="M 7.4375 0.203125 C 3.695312 0.203125 0 2.339844 0 5.800781 C 0 8 1.445312 9.25 2.320312 9.25 C 2.679688 9.25 2.886719 8.386719 2.886719 8.144531 C 2.886719 7.851562 2.023438 7.234375 2.023438 6.023438 C 2.023438 3.511719 4.253906 1.730469 7.140625 1.730469 C 9.625 1.730469 11.460938 2.941406 11.460938 5.164062 C 11.460938 6.820312 10.6875 9.933594 8.171875 9.933594 C 7.261719 9.933594 6.484375 9.371094 6.484375 8.566406 C 6.484375 7.382812 7.449219 6.242188 7.449219 5.023438 C 7.449219 2.953125 4.023438 3.328125 4.023438 5.828125 C 4.023438 6.351562 4.101562 6.933594 4.375 7.414062 C 3.871094 9.269531 2.84375 12.035156 2.84375 13.945312 C 2.84375 14.539062 2.941406 15.117188 3.007812 15.710938 C 3.132812 15.828125 3.070312 15.816406 3.257812 15.757812 C 5.097656 13.601562 5.03125 13.179688 5.863281 10.355469 C 6.3125 11.085938 7.46875 11.480469 8.390625 11.480469 C 12.261719 11.480469 14 8.246094 14 5.332031 C 14 2.226562 10.871094 0.203125 7.4375 0.203125 Z M 7.4375 0.203125 "/>
</g>
</svg>
